<svg width="28" height="20" viewBox="0 0 28 20" fill="none" xmlns="http://www.w3.org/2000/svg">
<rect width="28" height="20" rx="2" fill="white"/>
<mask id="mask0_0_658" style="mask-type:alpha" maskUnits="userSpaceOnUse" x="0" y="0" width="28" height="20">
<rect width="28" height="20" rx="2" fill="white"/>
</mask>
<g mask="url(#mask0_0_658)">
<path fill-rule="evenodd" clip-rule="evenodd" d="M28 0H0V1.33333H28V0ZM28 2.66667H0V4H28V2.66667ZM0 5.33333H28V6.66667H0V5.33333ZM28 8H0V9.33333H28V8ZM0 10.6667H28V12H0V10.6667ZM28 13.3333H0V14.6667H28V13.3333ZM0 16H28V17.3333H0V16ZM28 18.6667H0V20H28V18.6667Z" fill="#D02F44"/>
<rect width="12" height="9.33333" fill="#46467F"/>
<g filter="url(#filter0_d_0_658)">
<path fill-rule="evenodd" clip-rule="evenodd" d="M2.66671 2.00016C2.66671 2.36835 2.36823 2.66683 2.00004 2.66683C1.63185 2.66683 1.33337 2.36835 1.33337 2.00016C1.33337 1.63197 1.63185 1.3335 2.00004 1.3335C2.36823 1.3335 2.66671 1.63197 2.66671 2.00016ZM5.33337 2.00016C5.33337 2.36835 5.0349 2.66683 4.66671 2.66683C4.29852 2.66683 4.00004 2.36835 4.00004 2.00016C4.00004 1.63197 4.29852 1.3335 4.66671 1.3335C5.0349 1.3335 5.33337 1.63197 5.33337 2.00016ZM7.33337 2.66683C7.70156 2.66683 8.00004 2.36835 8.00004 2.00016C8.00004 1.63197 7.70156 1.3335 7.33337 1.3335C6.96518 1.3335 6.66671 1.63197 6.66671 2.00016C6.66671 2.36835 6.96518 2.66683 7.33337 2.66683ZM10.6667 2.00016C10.6667 2.36835 10.3682 2.66683 10 2.66683C9.63185 2.66683 9.33337 2.36835 9.33337 2.00016C9.33337 1.63197 9.63185 1.3335 10 1.3335C10.3682 1.3335 10.6667 1.63197 10.6667 2.00016ZM3.33337 4.00016C3.70156 4.00016 4.00004 3.70169 4.00004 3.3335C4.00004 2.96531 3.70156 2.66683 3.33337 2.66683C2.96518 2.66683 2.66671 2.96531 2.66671 3.3335C2.66671 3.70169 2.96518 4.00016 3.33337 4.00016ZM6.66671 3.3335C6.66671 3.70169 6.36823 4.00016 6.00004 4.00016C5.63185 4.00016 5.33337 3.70169 5.33337 3.3335C5.33337 2.96531 5.63185 2.66683 6.00004 2.66683C6.36823 2.66683 6.66671 2.96531 6.66671 3.3335ZM8.66671 4.00016C9.0349 4.00016 9.33337 3.70169 9.33337 3.3335C9.33337 2.96531 9.0349 2.66683 8.66671 2.66683C8.29852 2.66683 8.00004 2.96531 8.00004 3.3335C8.00004 3.70169 8.29852 4.00016 8.66671 4.00016ZM10.6667 4.66683C10.6667 5.03502 10.3682 5.3335 10 5.3335C9.63185 5.3335 9.33337 5.03502 9.33337 4.66683C9.33337 4.29864 9.63185 4.00016 10 4.00016C10.3682 4.00016 10.6667 4.29864 10.6667 4.66683ZM7.33337 5.3335C7.70156 5.3335 8.00004 5.03502 8.00004 4.66683C8.00004 4.29864 7.70156 4.00016 7.33337 4.00016C6.96518 4.00016 6.66671 4.29864 6.66671 4.66683C6.66671 5.03502 6.96518 5.3335 7.33337 5.3335ZM5.33337 4.66683C5.33337 5.03502 5.0349 5.3335 4.66671 5.3335C4.29852 5.3335 4.00004 5.03502 4.00004 4.66683C4.00004 4.29864 4.29852 4.00016 4.66671 4.00016C5.0349 4.00016 5.33337 4.29864 5.33337 4.66683ZM2.00004 5.3335C2.36823 5.3335 2.66671 5.03502 2.66671 4.66683C2.66671 4.29864 2.36823 4.00016 2.00004 4.00016C1.63185 4.00016 1.33337 4.29864 1.33337 4.66683C1.33337 5.03502 1.63185 5.3335 2.00004 5.3335ZM4.00004 6.00016C4.00004 6.36835 3.70156 6.66683 3.33337 6.66683C2.96518 6.66683 2.66671 6.36835 2.66671 6.00016C2.66671 5.63197 2.96518 5.3335 3.33337 5.3335C3.70156 5.3335 4.00004 5.63197 4.00004 6.00016ZM6.00004 6.66683C6.36823 6.66683 6.66671 6.36835 6.66671 6.00016C6.66671 5.63197 6.36823 5.3335 6.00004 5.3335C5.63185 5.3335 5.33337 5.63197 5.33337 6.00016C5.33337 6.36835 5.63185 6.66683 6.00004 6.66683ZM9.33337 6.00016C9.33337 6.36835 9.0349 6.66683 8.66671 6.66683C8.29852 6.66683 8.00004 6.36835 8.00004 6.00016C8.00004 5.63197 8.29852 5.3335 8.66671 5.3335C9.0349 5.3335 9.33337 5.63197 9.33337 6.00016ZM10 8.00016C10.3682 8.00016 10.6667 7.70169 10.6667 7.3335C10.6667 6.96531 10.3682 6.66683 10 6.66683C9.63185 6.66683 9.33337 6.96531 9.33337 7.3335C9.33337 7.70169 9.63185 8.00016 10 8.00016ZM8.00004 7.3335C8.00004 7.70169 7.70156 8.00016 7.33337 8.00016C6.96518 8.00016 6.66671 7.70169 6.66671 7.3335C6.66671 6.96531 6.96518 6.66683 7.33337 6.66683C7.70156 6.66683 8.00004 6.96531 8.00004 7.3335ZM4.66671 8.00016C5.0349 8.00016 5.33337 7.70169 5.33337 7.3335C5.33337 6.96531 5.0349 6.66683 4.66671 6.66683C4.29852 6.66683 4.00004 6.96531 4.00004 7.3335C4.00004 7.70169 4.29852 8.00016 4.66671 8.00016ZM2.66671 7.3335C2.66671 7.70169 2.36823 8.00016 2.00004 8.00016C1.63185 8.00016 1.33337 7.70169 1.33337 7.3335C1.33337 6.96531 1.63185 6.66683 2.00004 6.66683C2.36823 6.66683 2.66671 6.96531 2.66671 7.3335Z" fill="white"/>
</g>
</g>
<defs>
<filter id="filter0_d_0_658" x="1.33337" y="1.3335" width="9.33337" height="7.6665" filterUnits="userSpaceOnUse" color-interpolation-filters="sRGB">
<feFlood flood-opacity="0" result="BackgroundImageFix"/>
<feColorMatrix in="SourceAlpha" type="matrix" values="0 0 0 0 0 0 0 0 0 0 0 0 0 0 0 0 0 0 127 0" result="hardAlpha"/>
<feOffset dy="1"/>
<feColorMatrix type="matrix" values="0 0 0 0 0 0 0 0 0 0 0 0 0 0 0 0 0 0 0.06 0"/>
<feBlend mode="normal" in2="BackgroundImageFix" result="effect1_dropShadow_0_658"/>
<feBlend mode="normal" in="SourceGraphic" in2="effect1_dropShadow_0_658" result="shape"/>
</filter>
</defs>
</svg>
