<svg width="201" height="52" viewBox="0 0 201 52" fill="none" xmlns="http://www.w3.org/2000/svg">
<path d="M26.4184 36.0602L0 9.64176V0L19.4764 19.4764L26.4184 12.5343V36.0602Z" fill="#247CFF"/>
<path d="M3.24249e-05 15.6195L26.4185 42.0379V51.6797L6.9421 32.2033L3.24249e-05 39.1454V15.6195Z" fill="#247CFF"/>
<path d="M54.8326 5.78516H58.0448V29.9633H55.4543L43.0199 11.8988V29.9633H39.8076V5.78516H42.3981L54.8326 23.8151V5.78516Z" fill="#162336"/>
<path d="M77.4818 27.7873C75.7087 29.5373 73.5557 30.4123 71.0228 30.4123C68.4898 30.4123 66.3368 29.5373 64.5638 27.7873C62.8137 26.0372 61.9387 23.8842 61.9387 21.3282C61.9387 18.7723 62.8137 16.6193 64.5638 14.8692C66.3368 13.1192 68.4898 12.2442 71.0228 12.2442C73.5557 12.2442 75.7087 13.1192 77.4818 14.8692C79.2549 16.6193 80.1414 18.7723 80.1414 21.3282C80.1414 23.8842 79.2549 26.0372 77.4818 27.7873ZM71.0228 27.4764C72.7498 27.4764 74.2005 26.8892 75.3748 25.7148C76.5492 24.5405 77.1364 23.0783 77.1364 21.3282C77.1364 19.5782 76.5492 18.116 75.3748 16.9416C74.2005 15.7673 72.7498 15.1801 71.0228 15.1801C69.3188 15.1801 67.8796 15.7673 66.7053 16.9416C65.5309 18.116 64.9437 19.5782 64.9437 21.3282C64.9437 23.0783 65.5309 24.5405 66.7053 25.7148C67.8796 26.8892 69.3188 27.4764 71.0228 27.4764Z" fill="#162336"/>
<path d="M95.0984 12.6932H98.3451L91.4371 29.9633H87.914L81.006 12.6932H84.2528L89.6756 26.7511L95.0984 12.6932Z" fill="#162336"/>
<path d="M114.788 27.7873C113.015 29.5373 110.862 30.4123 108.329 30.4123C105.796 30.4123 103.643 29.5373 101.87 27.7873C100.12 26.0372 99.2448 23.8842 99.2448 21.3282C99.2448 18.7723 100.12 16.6193 101.87 14.8692C103.643 13.1192 105.796 12.2442 108.329 12.2442C110.862 12.2442 113.015 13.1192 114.788 14.8692C116.561 16.6193 117.447 18.7723 117.447 21.3282C117.447 23.8842 116.561 26.0372 114.788 27.7873ZM108.329 27.4764C110.056 27.4764 111.507 26.8892 112.681 25.7148C113.855 24.5405 114.442 23.0783 114.442 21.3282C114.442 19.5782 113.855 18.116 112.681 16.9416C111.507 15.7673 110.056 15.1801 108.329 15.1801C106.625 15.1801 105.186 15.7673 104.011 16.9416C102.837 18.116 102.25 19.5782 102.25 21.3282C102.25 23.0783 102.837 24.5405 104.011 25.7148C105.186 26.8892 106.625 27.4764 108.329 27.4764Z" fill="#162336"/>
<path d="M130.014 15.5946H125.42V24.955C125.42 25.807 125.581 26.4172 125.904 26.7856C126.249 27.131 126.767 27.3152 127.458 27.3382C128.149 27.3382 129.001 27.3152 130.014 27.2692V29.9633C127.389 30.3087 125.466 30.1014 124.246 29.3416C123.025 28.5587 122.415 27.0965 122.415 24.955V15.5946H118.996V12.6932H122.415V8.75561L125.42 7.85757V12.6932H130.014V15.5946Z" fill="#162336"/>
<path d="M136.678 15.5946C137.668 13.4531 139.464 12.3823 142.066 12.3823V15.5255C140.592 15.4564 139.326 15.8479 138.267 16.6999C137.207 17.5518 136.678 18.9219 136.678 20.8101V29.9633H133.673V12.6932H136.678V15.5946Z" fill="#162336"/>
<path d="M146.169 22.7099C146.468 24.2526 147.17 25.45 148.276 26.302C149.404 27.154 150.786 27.58 152.421 27.58C154.7 27.58 156.358 26.7395 157.394 25.0586L159.95 26.5093C158.269 29.1113 155.736 30.4123 152.351 30.4123C149.611 30.4123 147.378 29.5603 145.651 27.8563C143.947 26.1293 143.095 23.9533 143.095 21.3282C143.095 18.7262 143.935 16.5617 145.616 14.8347C147.297 13.1077 149.473 12.2442 152.144 12.2442C154.677 12.2442 156.738 13.1422 158.327 14.9383C159.939 16.7114 160.745 18.8529 160.745 21.3628C160.745 21.8003 160.71 22.2493 160.641 22.7099H146.169ZM152.144 15.0765C150.532 15.0765 149.197 15.537 148.138 16.4581C147.078 17.3561 146.422 18.565 146.169 20.0848H157.705C157.452 18.4499 156.807 17.2064 155.771 16.3545C154.735 15.5025 153.526 15.0765 152.144 15.0765Z" fill="#162336"/>
<path d="M172.799 12.2442C174.826 12.2442 176.449 12.8889 177.67 14.1784C178.89 15.4449 179.5 17.1719 179.5 19.3595V29.9633H176.495V19.5322C176.495 18.1275 176.115 17.0453 175.355 16.2854C174.596 15.5025 173.548 15.111 172.212 15.111C170.716 15.111 169.507 15.5831 168.586 16.5272C167.665 17.4482 167.204 18.8759 167.204 20.8101V29.9633H164.199V12.6932H167.204V15.1801C168.424 13.2228 170.29 12.2442 172.799 12.2442Z" fill="#162336"/>
<path d="M197.995 5.78516H201V29.9633H197.995V26.9928C196.498 29.2725 194.322 30.4123 191.467 30.4123C189.049 30.4123 186.988 29.5373 185.284 27.7873C183.58 26.0142 182.728 23.8612 182.728 21.3282C182.728 18.7953 183.58 16.6538 185.284 14.9038C186.988 13.1307 189.049 12.2442 191.467 12.2442C194.322 12.2442 196.498 13.384 197.995 15.6637V5.78516ZM191.847 27.5109C193.597 27.5109 195.059 26.9238 196.233 25.7494C197.408 24.552 197.995 23.0783 197.995 21.3282C197.995 19.5782 197.408 18.116 196.233 16.9416C195.059 15.7442 193.597 15.1455 191.847 15.1455C190.12 15.1455 188.669 15.7442 187.495 16.9416C186.32 18.116 185.733 19.5782 185.733 21.3282C185.733 23.0783 186.32 24.552 187.495 25.7494C188.669 26.9238 190.12 27.5109 191.847 27.5109Z" fill="#162336"/>
<path d="M42.2211 38.1998C42.9668 38.1998 43.5968 38.4235 44.1113 38.8708C44.6258 39.3108 44.883 39.9222 44.883 40.7051C44.883 41.488 44.6183 42.1031 44.0889 42.5505C43.5596 42.9979 42.9109 43.2216 42.1429 43.2216C41.524 43.2216 40.9759 43.0799 40.4987 42.7966C40.0215 42.5058 39.6823 42.0882 39.481 41.5439L40.5882 40.9064C40.797 41.6147 41.3152 41.9689 42.1429 41.9689C42.5828 41.9689 42.9332 41.8571 43.1942 41.6334C43.4626 41.4022 43.5968 41.0928 43.5968 40.7051C43.5968 40.3174 43.4663 40.0116 43.2054 39.788C42.9444 39.5643 42.5977 39.4524 42.1652 39.4524H39.8836L40.1856 35.2471H44.5475V36.455H41.3711L41.2369 38.1998H42.2211Z" fill="#162336"/>
<path d="M52.9573 37.484H54.2435L52.0961 43.2551C51.5593 44.7017 50.6496 45.3876 49.3671 45.3131V44.1834C49.7474 44.2058 50.0531 44.1238 50.2843 43.9374C50.5154 43.7584 50.7055 43.4751 50.8547 43.0874L50.9106 42.9755L48.5395 37.484H49.8592L51.5257 41.5439L52.9573 37.484Z" fill="#162336"/>
<path d="M55.9548 40.7946C56.0442 41.2196 56.2493 41.5476 56.5699 41.7788C56.8905 42.0025 57.282 42.1143 57.7443 42.1143C58.3855 42.1143 58.8665 41.8832 59.1871 41.4209L60.1825 42.0025C59.6307 42.8152 58.8143 43.2216 57.7331 43.2216C56.8234 43.2216 56.089 42.9457 55.5298 42.3939C54.9705 41.8347 54.6909 41.1301 54.6909 40.2801C54.6909 39.445 54.9668 38.7478 55.5186 38.1886C56.0703 37.6219 56.7787 37.3386 57.6436 37.3386C58.4638 37.3386 59.1349 37.6256 59.6568 38.1998C60.1862 38.7739 60.4509 39.4711 60.4509 40.2913C60.4509 40.418 60.436 40.5858 60.4062 40.7946H55.9548ZM55.9436 39.8103H59.2318C59.1498 39.3555 58.9597 39.0125 58.6614 38.7814C58.3706 38.5502 58.0276 38.4346 57.6324 38.4346C57.1851 38.4346 56.8122 38.5577 56.514 38.8037C56.2157 39.0498 56.0256 39.3853 55.9436 39.8103Z" fill="#162336"/>
<path d="M66.1337 37.484H67.3417V43.0762H66.1337V42.2709C65.6789 42.9047 65.0265 43.2216 64.1765 43.2216C63.4085 43.2216 62.7523 42.9382 62.208 42.3716C61.6637 41.7974 61.3915 41.1003 61.3915 40.2801C61.3915 39.4524 61.6637 38.7553 62.208 38.1886C62.7523 37.6219 63.4085 37.3386 64.1765 37.3386C65.0265 37.3386 65.6789 37.6517 66.1337 38.2781V37.484ZM63.1028 41.5663C63.4383 41.9018 63.8596 42.0696 64.3666 42.0696C64.8736 42.0696 65.2949 41.9018 65.6304 41.5663C65.966 41.2233 66.1337 40.7946 66.1337 40.2801C66.1337 39.7656 65.966 39.3406 65.6304 39.005C65.2949 38.6621 64.8736 38.4906 64.3666 38.4906C63.8596 38.4906 63.4383 38.6621 63.1028 39.005C62.7672 39.3406 62.5995 39.7656 62.5995 40.2801C62.5995 40.7946 62.7672 41.2233 63.1028 41.5663Z" fill="#162336"/>
<path d="M70.1812 38.4235C70.4869 37.73 71.061 37.3833 71.9036 37.3833V38.6919C71.4413 38.6621 71.0387 38.7739 70.6957 39.0274C70.3527 39.2735 70.1812 39.6836 70.1812 40.2577V43.0762H68.9733V37.484H70.1812V38.4235Z" fill="#162336"/>
<path d="M73.9081 39.0274C73.9081 39.2138 74.0087 39.3629 74.2101 39.4748C74.4188 39.5792 74.6686 39.6724 74.9594 39.7544C75.2577 39.829 75.5559 39.9184 75.8542 40.0228C76.1524 40.1272 76.4022 40.3062 76.6035 40.5597C76.8123 40.8057 76.9167 41.1189 76.9167 41.4992C76.9167 42.036 76.7079 42.4573 76.2904 42.763C75.8803 43.0687 75.362 43.2216 74.7357 43.2216C74.184 43.2216 73.7105 43.106 73.3153 42.8749C72.9201 42.6437 72.633 42.3231 72.4541 41.913L73.4942 41.309C73.6881 41.8459 74.1019 42.1143 74.7357 42.1143C75.3695 42.1143 75.6864 41.9055 75.6864 41.488C75.6864 41.309 75.582 41.1636 75.3732 41.0518C75.1719 40.94 74.9221 40.8467 74.6239 40.7722C74.3331 40.6902 74.0386 40.597 73.7403 40.4926C73.4421 40.3882 73.1885 40.2167 72.9798 39.9781C72.7784 39.732 72.6778 39.4226 72.6778 39.0498C72.6778 38.5353 72.8716 38.1215 73.2594 37.8083C73.6546 37.4951 74.1429 37.3386 74.7245 37.3386C75.1868 37.3386 75.5969 37.4429 75.9548 37.6517C76.3202 37.853 76.5998 38.1364 76.7937 38.5017L75.7759 39.0721C75.582 38.6471 75.2316 38.4346 74.7245 38.4346C74.4934 38.4346 74.2995 38.4868 74.1429 38.5912C73.9864 38.6882 73.9081 38.8335 73.9081 39.0274Z" fill="#162336"/>
<path d="M86.2669 42.3716C85.7003 42.9308 85.0068 43.2104 84.1866 43.2104C83.3664 43.2104 82.6693 42.9308 82.0951 42.3716C81.5285 41.8049 81.2451 41.1077 81.2451 40.2801C81.2451 39.4524 81.5285 38.759 82.0951 38.1998C82.6693 37.6331 83.3664 37.3497 84.1866 37.3497C85.0068 37.3497 85.7003 37.6331 86.2669 38.1998C86.8411 38.759 87.1281 39.4524 87.1281 40.2801C87.1281 41.1077 86.8411 41.8049 86.2669 42.3716ZM82.6208 41.8571C83.0458 42.2821 83.5678 42.4946 84.1866 42.4946C84.8055 42.4946 85.3274 42.2821 85.7524 41.8571C86.1775 41.4246 86.39 40.8989 86.39 40.2801C86.39 39.6612 86.1775 39.1393 85.7524 38.7142C85.3274 38.2818 84.8055 38.0656 84.1866 38.0656C83.5678 38.0656 83.0458 38.2818 82.6208 38.7142C82.1958 39.1393 81.9833 39.6612 81.9833 40.2801C81.9833 40.8989 82.1958 41.4246 82.6208 41.8571Z" fill="#818493"/>
<path d="M91.2043 37.3497C91.8828 37.3497 92.4159 37.5585 92.8036 37.9761C93.1988 38.3862 93.3964 38.9417 93.3964 39.6426V43.0762H92.6582V39.6426C92.6582 39.143 92.524 38.7553 92.2556 38.4794C91.9946 38.2035 91.6218 38.0656 91.1371 38.0656C90.6003 38.0656 90.1641 38.237 89.8286 38.58C89.493 38.9156 89.3253 39.4375 89.3253 40.1459V43.0762H88.5871V37.484H89.3253V38.3563C89.7428 37.6853 90.3691 37.3497 91.2043 37.3497Z" fill="#818493"/>
<path d="M101.031 38.1998H99.4205V41.5886C99.4205 41.8944 99.4802 42.1143 99.5995 42.2485C99.7188 42.3753 99.8977 42.4424 100.136 42.4499C100.375 42.4499 100.673 42.4424 101.031 42.4275V43.0762C100.248 43.1955 99.6591 43.1396 99.264 42.9084C98.8762 42.6773 98.6824 42.2373 98.6824 41.5886V38.1998H97.508V37.484H98.6824V36.1418L99.4205 35.9181V37.484H101.031V38.1998Z" fill="#818493"/>
<path d="M105.102 37.3497C105.781 37.3497 106.314 37.5585 106.702 37.9761C107.097 38.3862 107.294 38.9417 107.294 39.6426V43.0762H106.556V39.6426C106.556 39.143 106.422 38.7553 106.154 38.4794C105.893 38.2035 105.52 38.0656 105.035 38.0656C104.498 38.0656 104.062 38.237 103.727 38.58C103.391 38.9156 103.223 39.4375 103.223 40.1459V43.0762H102.485V35.2471H103.223V38.3563C103.641 37.6853 104.267 37.3497 105.102 37.3497Z" fill="#818493"/>
<path d="M111.529 37.3497C112.357 37.3497 113.024 37.6443 113.531 38.2333C114.046 38.8149 114.303 39.5046 114.303 40.3024C114.303 40.3845 114.295 40.5 114.28 40.6492H109.37C109.445 41.2158 109.684 41.6669 110.086 42.0025C110.496 42.3306 111 42.4946 111.596 42.4946C112.021 42.4946 112.386 42.4088 112.692 42.2373C113.005 42.0584 113.24 41.8273 113.397 41.5439L114.046 41.9242C113.799 42.3194 113.464 42.6325 113.039 42.8637C112.614 43.0948 112.129 43.2104 111.585 43.2104C110.705 43.2104 109.989 42.9345 109.438 42.3827C108.886 41.831 108.61 41.1301 108.61 40.2801C108.61 39.445 108.882 38.7478 109.426 38.1886C109.971 37.6294 110.672 37.3497 111.529 37.3497ZM111.529 38.0656C110.947 38.0656 110.459 38.2408 110.064 38.5912C109.676 38.9342 109.445 39.3816 109.37 39.9334H113.542C113.468 39.3443 113.24 38.8857 112.86 38.5577C112.48 38.2296 112.036 38.0656 111.529 38.0656Z" fill="#818493"/>
<path d="M124.682 37.3497C125.308 37.3497 125.811 37.5511 126.192 37.9537C126.579 38.3563 126.773 38.9007 126.773 39.5866V43.0762H126.035V39.5866C126.035 39.102 125.908 38.7292 125.655 38.4682C125.409 38.1998 125.081 38.0656 124.671 38.0656C124.208 38.0656 123.832 38.2221 123.541 38.5353C123.258 38.841 123.116 39.3219 123.116 39.9781V43.0762H122.378V39.5866C122.378 39.0945 122.258 38.718 122.02 38.457C121.789 38.196 121.472 38.0656 121.069 38.0656C120.622 38.0656 120.242 38.2221 119.928 38.5353C119.615 38.8485 119.459 39.3294 119.459 39.9781V43.0762H118.72V37.484H119.459V38.3004C119.861 37.6666 120.432 37.3497 121.17 37.3497C121.975 37.3497 122.542 37.689 122.87 38.3675C123.272 37.689 123.876 37.3497 124.682 37.3497Z" fill="#818493"/>
<path d="M133.234 37.484H133.972V43.0762H133.234V41.9801C132.72 42.8003 131.966 43.2104 130.975 43.2104C130.177 43.2104 129.495 42.9271 128.928 42.3604C128.369 41.7937 128.089 41.1003 128.089 40.2801C128.089 39.4599 128.369 38.7664 128.928 38.1998C129.495 37.6331 130.177 37.3497 130.975 37.3497C131.966 37.3497 132.72 37.7598 133.234 38.58V37.484ZM129.465 41.8571C129.89 42.2821 130.412 42.4946 131.031 42.4946C131.65 42.4946 132.171 42.2821 132.596 41.8571C133.021 41.4246 133.234 40.8989 133.234 40.2801C133.234 39.6612 133.021 39.1393 132.596 38.7142C132.171 38.2818 131.65 38.0656 131.031 38.0656C130.412 38.0656 129.89 38.2818 129.465 38.7142C129.04 39.1393 128.827 39.6612 128.827 40.2801C128.827 40.8989 129.04 41.4246 129.465 41.8571Z" fill="#818493"/>
<path d="M136.497 38.4123C136.84 37.7337 137.429 37.3945 138.264 37.3945V38.1103C137.757 38.1103 137.336 38.2594 137 38.5577C136.665 38.8559 136.497 39.3257 136.497 39.9669V43.0762H135.759V37.484H136.497V38.4123Z" fill="#818493"/>
<path d="M144.018 43.0762H143.034L140.238 40.3807V43.0762H139.499V35.2471H140.238V39.9557L142.9 37.484H143.906L141.021 40.1682L144.018 43.0762Z" fill="#818493"/>
<path d="M147.276 37.3497C148.104 37.3497 148.771 37.6443 149.278 38.2333C149.793 38.8149 150.05 39.5046 150.05 40.3024C150.05 40.3845 150.043 40.5 150.028 40.6492H145.118C145.192 41.2158 145.431 41.6669 145.834 42.0025C146.244 42.3306 146.747 42.4946 147.344 42.4946C147.769 42.4946 148.134 42.4088 148.44 42.2373C148.753 42.0584 148.988 41.8273 149.144 41.5439L149.793 41.9242C149.547 42.3194 149.211 42.6325 148.786 42.8637C148.361 43.0948 147.877 43.2104 147.332 43.2104C146.452 43.2104 145.737 42.9345 145.185 42.3827C144.633 41.831 144.357 41.1301 144.357 40.2801C144.357 39.445 144.629 38.7478 145.174 38.1886C145.718 37.6294 146.419 37.3497 147.276 37.3497ZM147.276 38.0656C146.695 38.0656 146.206 38.2408 145.811 38.5912C145.424 38.9342 145.192 39.3816 145.118 39.9334H149.29C149.215 39.3443 148.988 38.8857 148.607 38.5577C148.227 38.2296 147.783 38.0656 147.276 38.0656Z" fill="#818493"/>
<path d="M154.248 38.1998H152.638V41.5886C152.638 41.8944 152.697 42.1143 152.816 42.2485C152.936 42.3753 153.115 42.4424 153.353 42.4499C153.592 42.4499 153.89 42.4424 154.248 42.4275V43.0762C153.465 43.1955 152.876 43.1396 152.481 42.9084C152.093 42.6773 151.899 42.2373 151.899 41.5886V38.1998H150.725V37.484H151.899V36.1418L152.638 35.9181V37.484H154.248V38.1998Z" fill="#818493"/>
</svg>
