<svg width="127" height="35" viewBox="0 0 127 35" fill="none" xmlns="http://www.w3.org/2000/svg">
<path opacity="0.3" fill-rule="evenodd" clip-rule="evenodd" d="M0 17.7953C0 31.4221 0.0252988 34.9106 0.124014 34.9099C0.192271 34.9094 1.16325 34.7797 2.28185 34.6216C3.40045 34.4637 4.57213 34.3046 4.88564 34.2682L5.45561 34.2022L5.48091 24.8708L5.50621 15.5394L8.52599 24.3814C10.1869 29.2444 11.5746 33.27 11.6099 33.3269C11.6693 33.4232 16.6362 32.9274 17.2379 32.7652L17.4611 32.7051V16.694V0.683061H14.7824H12.1037V10.4223C12.1037 15.7788 12.0811 20.1389 12.0535 20.1112C12.026 20.0837 10.4454 15.7122 8.54127 10.3969L5.0791 0.732666L2.5395 0.706177L0 0.679688V17.7953ZM22.7193 16.485V32.287L23.0913 32.2564C24.4801 32.1424 37.3346 31.1408 37.409 31.1408C37.4641 31.1408 37.5017 30.1084 37.5017 28.5954V26.0499L35.8895 26.1145C35.0029 26.1499 32.9827 26.2685 31.4003 26.3779C29.8178 26.4872 28.4003 26.5768 28.2503 26.5769L27.9775 26.5771V22.5748V18.5726L30.0769 18.5072C31.2316 18.4713 32.8388 18.4418 33.6485 18.4418H35.1207V15.799V13.1563L31.5491 13.2292L27.9775 13.302V9.67127V6.04045H32.7396H37.5017V3.36176V0.683061H30.1105H22.7193V16.485ZM40.9741 3.36176V6.04045H43.752H46.5299V18.4068V30.773L47.289 30.7089C47.7065 30.6736 48.9119 30.6448 49.9677 30.6448H51.8873V18.3426V6.04045H54.6652H57.4431V3.36176V0.683061H49.2086H40.9741V3.36176ZM60.9155 15.5151V30.3471H63.5446H66.1737V24.2953V18.2434H69.7949H73.4161V15.5647V12.886H69.7949H66.1737V9.46323V6.04045H70.9854H75.7971V3.36176V0.683061H68.3563H60.9155V15.5151ZM79.2695 15.7135V30.744L80.088 30.7449C81.6448 30.7466 91.5339 31.239 93.0846 31.392L93.6551 31.4483V28.8143V26.1803H93.4005C93.2604 26.1803 92.0529 26.1107 90.7172 26.0258C89.3813 25.9408 87.4534 25.8404 86.4328 25.8026L84.5773 25.7338L84.5521 13.2084L84.5269 0.683061H81.8982H79.2695V15.7135ZM98.318 16.2465V31.8098L99.6237 31.882C100.342 31.9218 101.503 32.0065 102.203 32.0703L103.477 32.1864V16.4348V0.683061H100.897H98.318V16.2465ZM108.167 0.805487C109.44 4.04006 114.322 16.735 114.32 16.8048C114.319 16.8594 112.81 20.3194 110.969 24.4937C109.127 28.668 107.6 32.1764 107.574 32.2901C107.53 32.4856 107.591 32.5034 108.702 32.6178C109.348 32.6842 110.608 32.8288 111.503 32.9391C112.772 33.0955 113.146 33.1128 113.205 33.018C113.246 32.9511 114.115 30.9499 115.137 28.5709C116.158 26.1921 117.026 24.2101 117.065 24.1668C117.105 24.1233 118.003 26.3144 119.061 29.0357L120.984 33.9834L123.892 34.4596C125.491 34.7214 126.823 34.9127 126.851 34.8847C126.879 34.8567 125.383 30.819 123.526 25.912L120.15 16.9903L123.52 8.91648C125.374 4.47589 126.891 0.806777 126.891 0.762925C126.891 0.718975 125.602 0.683061 124.026 0.683061H121.162L119.272 5.21869C117.574 9.29447 117.371 9.72961 117.273 9.50956C117.213 9.37493 116.415 7.34507 115.5 4.99874L113.836 0.732666L110.977 0.706276C108.702 0.685343 108.128 0.705681 108.167 0.805487Z" fill="#59769F"/>
</svg>
