<svg width="99" height="41" viewBox="0 0 99 41" fill="none" xmlns="http://www.w3.org/2000/svg">
<g opacity="0.3">
<g opacity="0.8">
<path d="M24.5213 21.207L12.2631 28.5162L0 21.207L12.2631 0.679688L24.5213 21.207Z" fill="#59769F"/>
<path d="M12.2631 40.9806L0 23.5511L12.2631 30.8604L24.531 23.5511L12.2631 40.9806Z" fill="#59769F"/>
</g>
<path fill-rule="evenodd" clip-rule="evenodd" d="M43.4411 11.3635C43.4096 11.4573 42.1104 15.5631 40.554 20.4875C38.9975 25.4119 37.7124 29.4747 37.6982 29.516L37.6724 29.5911H46.7812H55.8901L56.5315 26.7863C56.8843 25.2437 57.1796 23.954 57.1878 23.9202L57.2027 23.8589L52.6485 23.852L48.0943 23.8451V23.2172V22.5894L51.9933 22.5825L55.8922 22.5756L56.5345 20.4397C56.8877 19.2649 57.1827 18.2823 57.19 18.256C57.2026 18.2106 57.0039 18.2082 53.3054 18.2082H49.4074L49.7354 17.2528L50.0634 16.2974H56.924C63.4448 16.2974 63.7838 16.2998 63.7696 16.3452C63.7614 16.3715 62.8794 19.3461 61.8096 22.9554C60.7398 26.5648 59.858 29.5344 59.85 29.5546C59.8379 29.5852 60.532 29.5901 64.0653 29.5844L68.2951 29.5775L70.2637 22.9374L72.2323 16.2974H75.1941H78.1559L78.117 16.4271C78.0956 16.4984 77.2157 19.468 76.1618 23.0262C75.1078 26.5843 74.2388 29.517 74.2307 29.5433C74.2167 29.5887 74.4301 29.5911 78.4376 29.5911H82.6593L82.7016 29.4478C82.7249 29.369 83.168 27.795 83.6863 25.9501C84.2046 24.1051 84.6335 22.591 84.6393 22.5854C84.6451 22.5798 85.2388 22.5784 85.9587 22.5823L87.2676 22.5894L86.3002 26.0288C85.7681 27.9205 85.3253 29.4959 85.3162 29.5297L85.2997 29.5911H89.5222H93.7447L93.7758 29.4887C93.7929 29.4324 94.9753 25.2959 96.4033 20.2964L98.9998 11.2065L94.7368 11.1996C92.3922 11.1958 90.4703 11.1961 90.4659 11.2004C90.4616 11.2046 90.0365 12.7831 89.5213 14.7081L88.5846 18.2082H87.2669C86.025 18.2082 85.95 18.2055 85.9638 18.1604C85.9719 18.1342 86.4101 16.5711 86.9377 14.6869C87.4652 12.8027 87.9022 11.2458 87.9088 11.227C87.9184 11.1997 83.4662 11.1929 65.7096 11.1929H43.4984L43.4411 11.3635Z" fill="#59769F"/>
</g>
</svg>
