<svg width="127" height="38" viewBox="0 0 127 38" fill="none" xmlns="http://www.w3.org/2000/svg">
<g opacity="0.3">
<path fill-rule="evenodd" clip-rule="evenodd" d="M83.3914 33.4913H86.8432L86.9007 21.3684L87.2742 20.2735C88.0116 18.1114 89.4414 17.0332 91.0206 17.4483C92.4377 17.8207 93.2094 18.9588 93.5296 21.1484C93.6357 21.8744 93.6691 23.4523 93.6705 27.7959L93.6722 33.4913H97.1321L97.1313 27.8675C97.1302 20.5921 97.0183 19.129 96.2919 16.9C95.6874 15.0446 94.5786 13.6851 93.1779 13.0816C92.8789 12.9528 92.2116 12.8111 91.6951 12.7668C89.9629 12.6184 88.6856 13.251 87.5317 14.8287L86.8513 15.759V4.40503H83.3914V33.4913ZM75.5819 7.49219C75.011 7.59191 74.4216 7.6796 74.272 7.68705L74.0002 7.70052V13.002H71.3311V17.3004H74.0002L74.0019 22.4228C74.0039 28.0695 74.0618 28.8613 74.5872 30.4123C75.1457 32.0608 76.3012 33.2993 77.6084 33.6507C78.492 33.8881 80.3259 33.7319 81.1671 33.3475C81.5477 33.1735 81.8738 33.0115 81.8917 32.9871C81.9097 32.9629 81.7177 31.9962 81.465 30.8389C81.0333 28.8616 80.9926 28.7407 80.7898 28.8336C79.5229 29.4147 79.0891 29.4586 78.494 29.0668C77.9927 28.7368 77.5901 28.0539 77.4888 27.3619C77.4458 27.0686 77.4107 24.701 77.4107 22.1004V17.3721L81.4195 17.2944L81.3648 13.0736L77.4601 12.9959V7.27067L77.04 7.29073C76.8089 7.30162 76.1527 7.39232 75.5819 7.49219ZM49.2372 7.7074C48.4216 7.84781 47.6988 7.96817 47.6308 7.9749C47.5367 7.98422 47.5072 8.61924 47.5072 10.6378V13.2885H44.8382V17.587H47.5072V22.7939C47.5072 27.4766 47.5265 28.1101 47.6988 29.0867C47.9442 30.4768 48.2063 31.2121 48.7654 32.0787C49.6644 33.4717 51.1737 34.1882 52.8452 34.0154C53.6606 33.9312 55.184 33.4545 55.3343 33.2366C55.3752 33.1772 55.2048 32.1913 54.9557 31.0452L54.5029 28.9616L53.9954 29.2158C53.3833 29.5224 52.3684 29.5536 51.9161 29.2797C51.4895 29.0213 51.1037 28.2797 50.9751 27.4706C50.9166 27.1021 50.872 24.8609 50.8706 22.2078L50.8683 17.587H54.8224V13.2885H50.9671V10.3512C50.9671 8.08681 50.9389 7.41839 50.8436 7.43301C50.7756 7.44361 50.0527 7.56698 49.2372 7.7074ZM62.1377 12.6339C59.3762 13.4794 57.3314 16.2208 56.6262 20.0228C56.3811 21.3451 56.3861 25.1552 56.6349 26.4705C57.1768 29.3359 58.4503 31.6242 60.1785 32.838C61.5592 33.8077 62.6613 34.1126 64.4607 34.0226C65.4178 33.9749 66.0887 33.8607 66.6355 33.6527C67.6045 33.284 69.2549 32.1088 69.8269 31.3801L70.2503 30.8406L69.1589 29.2659C68.204 27.8881 68.0459 27.7133 67.8952 27.8681C66.0495 29.7631 63.4445 30.0882 61.6133 28.6518C60.819 28.0285 60.1654 26.7725 60.0097 25.5695L59.9412 25.0401L71.084 24.966L71.0682 22.8168C71.0504 20.394 70.8736 19.1161 70.341 17.5589C69.509 15.1271 68.2515 13.6353 66.3715 12.8498C65.4338 12.4582 63.1005 12.3391 62.1377 12.6339ZM104.942 12.5188C101.053 13.6115 98.8126 17.4993 98.8126 23.1564C98.8126 27.6781 100.178 31.1534 102.619 32.8474C103.84 33.6951 104.558 33.9355 106.128 34.0229C107.136 34.0789 107.677 34.0385 108.339 33.858C109.915 33.4284 111.351 32.5041 112.287 31.3172L112.663 30.8406L110.483 27.7007L110.205 27.998C108.907 29.3889 106.515 29.9402 104.937 29.2118C104.149 28.8478 103.467 28.2122 103.055 27.4577C102.752 26.9039 102.371 25.6744 102.371 25.251C102.371 25.0646 103.077 25.0377 107.97 25.0377H113.568L113.517 22.781C113.459 20.2551 113.218 18.7231 112.622 17.0894C112.182 15.8855 111.089 14.3305 110.229 13.6851C109.081 12.824 108.261 12.5542 106.622 12.4983C105.834 12.4714 105.078 12.4807 104.942 12.5188ZM122.065 12.5778C120.987 12.7883 119.942 13.6371 119.422 14.7259C119.272 15.0386 119.116 15.2945 119.076 15.2945C119.035 15.2945 118.972 14.9883 118.936 14.6139C118.9 14.2395 118.845 13.7237 118.815 13.4676L118.759 13.002H115.519V33.4913H118.979L118.981 28.0824C118.982 25.1076 119.027 22.2293 119.081 21.6864C119.21 20.3936 119.668 19.1458 120.249 18.5027C121.436 17.189 123.485 17.0922 124.717 18.2918L125.15 18.713L125.916 16.6098C126.338 15.4529 126.684 14.4573 126.686 14.3972C126.688 14.3371 126.448 14.0643 126.154 13.791C125.066 12.7827 123.458 12.3056 122.065 12.5778ZM65.9436 17.3474C66.8864 17.9807 67.5182 19.0731 67.7186 20.4168L67.7881 20.8825H63.9249C59.611 20.8825 59.8799 20.9577 60.2665 19.8596C60.5204 19.1382 61.1601 18.1189 61.6145 17.7119C62.3252 17.0752 62.9952 16.8686 64.2136 16.9101C65.2162 16.9444 65.4205 16.996 65.9436 17.3474ZM108.382 17.3638C109.169 17.8846 109.822 18.8963 110.032 19.9195C110.114 20.3201 110.181 20.7007 110.181 20.7653C110.181 20.8298 108.446 20.8825 106.326 20.8825C103.306 20.8825 102.471 20.8437 102.472 20.7034C102.477 20.3227 102.863 19.3115 103.226 18.7291C104.095 17.3357 104.994 16.854 106.622 16.9114C107.631 16.9471 107.829 16.9981 108.382 17.3638Z" fill="#59769F"/>
<path fill-rule="evenodd" clip-rule="evenodd" d="M18.218 0.687987C14.0138 0.813382 10.0135 2.3103 6.77105 4.97148C5.91685 5.67256 5.05592 6.52264 4.34589 7.36608C2.82176 9.17662 1.66063 11.246 0.929801 13.4542C0.115856 15.9136 -0.167444 18.5094 0.0946945 21.1062C0.493867 25.0606 2.18056 28.7887 4.90282 31.7335C8.03762 35.1246 12.2994 37.2434 16.8966 37.6964C18.1914 37.824 19.4976 37.8208 20.7829 37.6871C24.7578 37.2736 28.4898 35.6158 31.4495 32.9489C34.8834 29.8546 37.0296 25.6457 37.4884 21.1062C37.6411 19.5956 37.6084 18.07 37.3914 16.5757C37.04 14.1556 36.203 11.8253 34.9313 9.72677C33.7705 7.81105 32.2808 6.12682 30.5127 4.73113C27.9335 2.69514 24.8645 1.37013 21.6088 0.886984C20.5012 0.722618 19.3406 0.654507 18.218 0.687987ZM27.6562 14.2969H21.1041V16.5767L21.3771 16.5926C24.8229 16.793 27.7866 17.4168 29.2632 18.2525C29.5499 18.4148 29.7319 18.5479 29.9187 18.732C30.1042 18.9147 30.1924 19.0447 30.2527 19.224C30.3048 19.3792 30.3108 19.5315 30.271 19.6845C30.2453 19.7834 30.1565 19.9575 30.0819 20.0551C29.7515 20.4878 29.0536 20.8927 28.0118 21.256C27.3388 21.4907 26.3823 21.7307 25.4308 21.9034C24.2084 22.1254 22.7383 22.2951 21.3885 22.37C21.2952 22.3752 21.193 22.3817 21.1614 22.3846L21.1041 22.3898V30.5704H16.2864L16.2818 22.3747L16.1716 22.3684C15.6408 22.338 14.9587 22.2813 14.3868 22.2202C11.3462 21.8951 8.97746 21.2461 7.90908 20.4453C7.648 20.2496 7.48261 20.0655 7.37965 19.8558C7.22361 19.5381 7.26398 19.2236 7.50107 18.91C8.18167 18.0099 10.4757 17.2367 13.6848 16.8258C14.49 16.7226 15.1887 16.6579 16.1969 16.5931L16.2863 16.5874V14.2969L9.73885 14.2924L9.7365 11.9275C9.7352 10.6268 9.7361 9.55744 9.73851 9.55121C9.74199 9.54216 11.5385 9.54033 18.6972 9.54215L27.6516 9.54442L27.6562 14.2969ZM21.1041 19.8763L21.0008 19.8821C20.8639 19.8898 20.5402 19.9027 20.1405 19.9165C19.7057 19.9315 17.8878 19.9317 17.4518 19.9167C17.0434 19.9027 16.4824 19.8789 16.3735 19.8709L16.2909 19.8649L16.2863 17.1045L16.2381 17.1094C16.2117 17.1122 16.1363 17.1168 16.0707 17.1197C15.6615 17.1381 14.9309 17.1895 14.396 17.2377C12.2946 17.4269 10.5796 17.751 9.57641 18.1483C9.28079 18.2654 9.00127 18.4183 8.84195 18.55C8.66477 18.6964 8.57596 18.8763 8.60322 19.0334C8.6216 19.1393 8.6686 19.2165 8.78414 19.3306C8.97055 19.5145 9.23605 19.6639 9.66543 19.8263C11.8618 20.6569 16.9215 21.0754 21.6317 20.8159C25.0048 20.63 27.6166 20.1365 28.5922 19.5005C28.7234 19.415 28.8846 19.2595 28.9295 19.1752C29.146 18.7685 28.7181 18.3776 27.6745 18.0286C26.4646 17.624 24.5202 17.3154 22.2053 17.1605C21.91 17.1408 21.5195 17.1186 21.3243 17.1104C21.2562 17.1076 21.1787 17.103 21.1522 17.1003L21.1041 17.0954V19.8763Z" fill="#59769F"/>
</g>
</svg>
