<svg width="128" height="40" viewBox="0 0 128 40" fill="none" xmlns="http://www.w3.org/2000/svg">
<path opacity="0.3" fill-rule="evenodd" clip-rule="evenodd" d="M17.759 0.732445C13.8486 1.03066 10.2361 2.46781 7.07804 4.9817C6.36644 5.54817 4.82785 7.08901 4.23778 7.82621C1.92881 10.7108 0.513884 14.114 0.093808 17.7934C-0.0316888 18.8927 -0.0312054 20.8908 0.0948818 21.9732C0.535409 25.7554 1.96306 29.1416 4.35104 32.0683C4.99237 32.8543 6.35179 34.1949 7.16865 34.8468C11.2196 38.0797 16.3021 39.5441 21.4359 38.9577C28.4635 38.155 34.5307 33.4936 37.1255 26.9033C37.9744 24.7473 38.368 22.7881 38.4338 20.3906C38.5079 17.688 38.0876 15.2912 37.102 12.7973C34.8807 7.17614 30.0225 2.87154 24.1466 1.31799C22.1069 0.778691 19.857 0.572488 17.759 0.732445ZM19.1406 8.46824C19.7825 8.59101 20.3232 8.70708 20.3424 8.72621C20.3615 8.74529 20.2641 9.35538 20.1258 10.0819C19.9876 10.8084 19.8816 11.4095 19.8902 11.4178C19.9354 11.4604 21.6287 11.7499 21.6572 11.7198C21.6757 11.7004 21.7996 11.0986 21.9327 10.3824C22.0658 9.66629 22.1838 9.07126 22.1949 9.06011C22.2234 9.03165 24.9159 9.54095 24.9577 9.58269C24.9865 9.61147 24.5371 12.1883 24.467 12.3963C24.4524 12.4394 24.5935 12.5332 24.8445 12.6474C26.621 13.4557 27.6717 15.1151 27.4465 16.7572C27.2183 18.4208 26.0504 19.6541 24.3076 20.072C24.0419 20.1357 23.7903 20.1985 23.7484 20.2115C23.7066 20.2245 23.936 20.3814 24.2583 20.5602C24.9855 20.9634 25.4785 21.3561 25.8092 21.7953C26.6336 22.8902 26.836 24.1556 26.404 25.5154C26.2006 26.1558 25.9324 26.5692 25.325 27.179C24.8273 27.6787 24.7336 27.7469 24.1698 28.0207C23.4442 28.373 22.9235 28.5173 22.0682 28.603C21.7222 28.6378 21.43 28.6915 21.4188 28.7225C21.4076 28.7535 21.2819 29.4058 21.1394 30.1721C20.9969 30.9384 20.8756 31.5723 20.8699 31.5807C20.8601 31.5951 18.0995 31.1016 18.065 31.0793C18.0562 31.0736 18.1624 30.4628 18.3011 29.7219C18.4398 28.9811 18.5437 28.3654 18.5319 28.3536C18.5201 28.3419 18.124 28.2619 17.6516 28.1758C16.8833 28.0359 16.7889 28.0283 16.7558 28.1044C16.7354 28.1511 16.6176 28.744 16.4939 29.4219C16.3703 30.0997 16.254 30.6714 16.2354 30.6922C16.1992 30.7329 13.5455 30.261 13.4781 30.2019C13.4559 30.1824 13.5491 29.5694 13.6852 28.8398C13.8213 28.1102 13.9238 27.5044 13.913 27.4936C13.9022 27.4828 12.9456 27.2973 11.7873 27.0814C10.1277 26.7721 9.68116 26.6719 9.68067 26.6085C9.6803 26.5643 9.76908 26.0519 9.87794 25.4698C10.1042 24.2596 10.0194 24.3583 10.7186 24.4918C11.6717 24.6739 11.9923 24.5498 12.1716 23.9292C12.2784 23.5595 14.0697 14 14.1152 13.557C14.1782 12.9437 13.9548 12.7443 12.9728 12.5366C12.6258 12.4633 12.3376 12.3983 12.3324 12.3922C12.3196 12.3774 12.7453 10.1346 12.7645 10.1153C12.7728 10.1069 13.6705 10.2683 14.7594 10.4738C15.8483 10.6795 16.8094 10.8551 16.8952 10.8642L17.0513 10.8807L17.2827 9.64818C17.5926 7.99785 17.5362 8.16317 17.774 8.20764C17.8839 8.22817 18.4988 8.34542 19.1406 8.46824ZM44.6077 16.7083C43.7633 20.9303 43.0436 24.5896 43.0083 24.8401C42.9023 25.5925 42.9269 26.7213 43.0601 27.2163C43.2464 27.9089 43.4673 28.2977 43.9511 28.785C44.3097 29.1461 44.4698 29.2619 44.8965 29.4688C46.5016 30.2469 49.0761 30.2907 51.2148 29.5763C54.7147 28.4073 57.1035 25.0975 57.4563 20.9283C57.704 18.0031 56.473 15.8122 54.2862 15.2861C53.1819 15.0204 51.8186 15.1784 50.7101 15.7007C50.0609 16.0065 49.6239 16.307 49.1198 16.7939C48.8909 17.0149 48.7038 17.1655 48.7038 17.1286C48.7038 17.0916 49.0782 15.2645 49.5358 13.0683C49.9934 10.8721 50.3678 9.06552 50.3678 9.05357C50.3678 9.04168 49.4172 9.03192 48.2554 9.03192H46.143L44.6077 16.7083ZM63.8548 9.32413C62.4173 9.64994 61.6161 11.1233 62.1303 12.4955C62.2887 12.918 62.7335 13.3657 63.1494 13.521C64.1004 13.8763 65.2229 13.6188 65.8983 12.8905C66.2823 12.4765 66.4253 12.1122 66.4582 11.4645C66.4876 10.8853 66.3985 10.5153 66.1358 10.1256C65.6823 9.4528 64.7431 9.12281 63.8548 9.32413ZM110.5 9.32413C109.063 9.64994 108.261 11.1233 108.776 12.4955C108.934 12.918 109.379 13.3657 109.795 13.521C110.746 13.8763 111.868 13.6188 112.544 12.8905C112.928 12.4765 113.071 12.1122 113.103 11.4645C113.133 10.8853 113.044 10.5153 112.781 10.1256C112.328 9.4528 111.388 9.12281 110.5 9.32413ZM72.3254 11.9836C71.1908 12.2472 70.2537 12.4718 70.2428 12.4827C70.232 12.4935 70.1038 13.1141 69.958 13.8618C69.8122 14.6095 69.6801 15.2755 69.6644 15.3418C69.6361 15.461 69.6251 15.4624 68.7279 15.4624C67.9099 15.4624 67.8172 15.4717 67.7916 15.5562C67.7633 15.6494 67.2223 18.5859 67.2223 18.6461C67.2223 18.6635 67.6285 18.6776 68.125 18.6776H69.0276L68.4464 21.6383C68.1268 23.2667 67.8155 24.9366 67.7547 25.3492C67.6259 26.2238 67.6015 27.3576 67.7022 27.7874C67.954 28.8618 68.7441 29.6058 69.9867 29.939C70.7072 30.1321 72.3773 30.1025 73.422 29.878C73.5696 29.8463 73.7198 29.8021 73.7558 29.7797C73.795 29.7554 73.9185 29.0912 74.0644 28.1204C74.34 26.2867 74.3228 26.4321 74.2598 26.471C74.2335 26.4873 73.8863 26.5032 73.4883 26.5064C72.8771 26.5114 72.7281 26.496 72.5297 26.4075C72.1074 26.2188 71.952 25.9216 71.9486 25.2956C71.9456 24.7545 72.0457 24.1581 72.6251 21.2632L73.1427 18.6776H74.6607H76.1788L76.2347 18.3963C76.4363 17.3821 76.7768 15.5799 76.7768 15.5265C76.7768 15.4783 76.404 15.4624 75.2739 15.4624C74.4472 15.4624 73.7709 15.4444 73.7709 15.4224C73.7709 15.3838 74.4479 11.7821 74.4911 11.5907C74.5028 11.5391 74.4844 11.4985 74.4502 11.5006C74.4161 11.5026 73.4599 11.7199 72.3254 11.9836ZM18.1884 14.6947C18.1067 15.1317 17.937 16.0317 17.8113 16.6949C17.6856 17.358 17.5917 17.9102 17.6027 17.9219C17.6372 17.9585 19.4463 18.2973 20.094 18.3884C21.5163 18.5884 22.4505 18.3412 22.9363 17.6363C23.1904 17.2677 23.2732 16.9895 23.2809 16.4798C23.2871 16.0648 23.2717 15.991 23.1109 15.6645C22.7275 14.8863 22.0987 14.6146 19.6037 14.1491C19.032 14.0425 18.5131 13.9429 18.4506 13.9278C18.3435 13.9019 18.3285 13.9457 18.1884 14.6947ZM85.2846 15.1975C82.9218 15.4411 81.115 16.2734 79.5375 17.8449C78.0603 19.3164 77.2291 21.064 76.9951 23.1902C76.5935 26.8394 78.3529 29.379 81.6819 29.9555C82.3142 30.0651 83.7621 30.0636 84.6221 29.9526C85.3701 29.8561 86.3295 29.6288 86.7484 29.4489L87.0291 29.3283V28.2177C87.0291 27.607 87.0137 26.8899 86.9948 26.6243L86.9604 26.1413L86.4177 26.3235C85.3062 26.6967 83.9785 26.7997 83.2426 26.5696C82.3793 26.2997 81.8212 25.7496 81.5318 24.883C81.3599 24.3683 81.3127 23.7649 81.3924 23.101C81.6155 21.2446 82.609 19.7404 84.1141 18.9804C85.1031 18.4811 86.6541 18.377 87.8005 18.7332C87.9789 18.7887 88.1331 18.8258 88.1431 18.8158C88.1796 18.7794 89.1225 15.7885 89.1225 15.7093C89.1225 15.6053 88.4761 15.3983 87.7827 15.2803C87.1489 15.1724 85.9222 15.1317 85.2846 15.1975ZM97.0399 15.196C96.017 15.3115 95.0122 15.6016 94.1581 16.0279C93.317 16.4476 92.8216 16.8021 92.1101 17.4932C90.8186 18.7478 89.9917 20.3189 89.5959 22.2704C89.4864 22.8104 89.4718 23.0324 89.4744 24.1167C89.4772 25.2813 89.4853 25.3787 89.6218 25.8851C89.8896 26.8784 90.4021 27.7756 91.0909 28.4565C92.3159 29.6674 94.2417 30.2518 96.3152 30.0417C98.3798 29.8326 100.03 29.0702 101.418 27.6839C102.833 26.2716 103.672 24.4815 103.94 22.3079C104.035 21.5395 103.981 19.9989 103.842 19.4798C103.222 17.1743 101.658 15.7205 99.3198 15.2778C98.7638 15.1725 97.6133 15.1312 97.0399 15.196ZM123.476 15.1928C121.806 15.4093 120.512 16.1626 119.332 17.605C119.224 17.7371 119.125 17.8336 119.112 17.8193C119.099 17.8051 119.153 17.2805 119.232 16.6536C119.312 16.0268 119.365 15.5023 119.351 15.4881C119.336 15.474 118.498 15.4624 117.488 15.4624H115.652L115.562 16.0652C115.311 17.7434 114.964 19.6893 114.083 24.3579C113.552 27.1725 113.103 29.542 113.086 29.6234L113.054 29.7714L115.16 29.7574L117.267 29.7434L117.922 26.3138C118.631 22.6041 118.668 22.4398 118.95 21.6785C119.818 19.3431 121.453 18.0576 122.76 18.6831C123.158 18.8733 123.388 19.2892 123.455 19.9356C123.522 20.5868 123.369 21.6088 122.597 25.6854C122.176 27.9039 121.844 29.7306 121.858 29.7446C121.903 29.7899 125.991 29.7718 126.019 29.7262C126.06 29.6607 127.598 21.5576 127.702 20.8595C127.763 20.4538 127.793 19.9015 127.795 19.1599C127.797 18.1683 127.785 18.0199 127.673 17.6351C127.31 16.3816 126.481 15.5583 125.3 15.2769C124.871 15.1748 123.944 15.132 123.476 15.1928ZM61.3254 15.7705C60.9613 17.6386 58.6877 29.6433 58.6877 29.6977C58.6877 29.7574 59.0557 29.7702 60.7741 29.7702H62.8605L62.9204 29.462C63.3157 27.4288 65.5583 15.5879 65.5583 15.5344C65.5583 15.4754 65.1823 15.4624 63.4719 15.4624H61.3855L61.3254 15.7705ZM108.016 15.4758C108.015 15.4831 107.403 18.6964 106.656 22.6163L105.298 29.7434L107.39 29.7574C108.541 29.7651 109.488 29.7651 109.495 29.7574C109.506 29.7444 112.123 16.0242 112.188 15.6365L112.218 15.4624H110.117C108.962 15.4624 108.016 15.4684 108.016 15.4758ZM98.4213 18.5595C99.0097 18.8487 99.3807 19.3666 99.5684 20.1613C99.6858 20.6582 99.6421 22.0308 99.4862 22.7409C99.0428 24.7609 98.0554 26.2839 96.9057 26.721C96.2464 26.9716 95.4131 26.897 94.8493 26.5369C94.5072 26.3185 94.3198 26.1036 94.1107 25.6901C93.8733 25.2205 93.7941 24.8005 93.7932 24.0056C93.7911 22.1854 94.4661 20.2822 95.4832 19.2398C96.1464 18.5602 96.6416 18.3461 97.4982 18.3688C98.0129 18.3825 98.0961 18.3996 98.4213 18.5595ZM51.9359 18.6902C52.4382 18.9009 52.8597 19.5085 53.001 20.2256C53.1018 20.7371 53.037 21.9028 52.8711 22.5627C52.2316 25.1059 50.6227 26.8669 48.9185 26.8891C48.0546 26.9002 47.5338 26.5314 47.3344 25.7669C47.2336 25.3806 47.234 25.1091 47.3364 24.3296C47.4272 23.6379 47.7698 22.1104 47.9551 21.5713C48.7084 19.3792 50.4953 18.0859 51.9359 18.6902ZM17.1165 20.4581C17.1039 20.4956 16.9482 21.3221 16.7703 22.2948C16.2684 25.0402 16.274 24.976 16.5205 25.1372C16.5912 25.1835 17.0075 25.2929 17.4456 25.3803C19.7501 25.8401 20.6013 25.8121 21.3637 25.2512C22.0607 24.7383 22.3894 24.0006 22.3378 23.0649C22.3184 22.7127 22.2811 22.554 22.1644 22.3263C21.861 21.7345 21.2215 21.2905 20.3087 21.0379C20.0872 20.9767 19.3384 20.8185 18.6447 20.6864C17.9509 20.5544 17.3284 20.4336 17.2613 20.4181C17.1885 20.4011 17.1302 20.4173 17.1165 20.4581Z" fill="#59769F"/>
</svg>
