<svg width="117" height="40" viewBox="0 0 117 40" fill="none" xmlns="http://www.w3.org/2000/svg">
<path opacity="0.3" fill-rule="evenodd" clip-rule="evenodd" d="M23.9079 0.701972C22.8829 0.80885 21.567 1.26744 20.5224 1.88184C18.6762 2.96771 17.2845 4.67394 16.5873 6.70623C16.3314 7.45205 16.216 8.14763 16.216 8.94461C16.216 9.46429 16.2293 9.5957 16.2864 9.64185C16.3731 9.71195 17.1411 9.67226 17.7019 9.56866C19.2061 9.29081 20.9363 8.29433 22.0059 7.08988C23.5484 5.35302 24.3936 3.12809 24.2868 1.08566C24.2627 0.625368 24.2982 0.661248 23.9079 0.701972ZM22.6643 10.1348C21.6993 10.2666 20.8356 10.5129 19.2177 11.1179C17.4251 11.7883 17.1013 11.8806 16.5384 11.8819C15.9794 11.8832 15.4544 11.7382 14.0282 11.1885C12.9872 10.7873 12.0225 10.4797 11.4028 10.3513C10.9652 10.2606 10.7676 10.2463 9.95197 10.2465C9.37664 10.2467 8.8728 10.2698 8.66231 10.3059C4.26964 11.0581 1.08741 14.3349 0.232691 18.986C-0.0776558 20.6749 -0.0775637 22.8965 0.232967 24.8418C0.721471 27.9019 1.92458 31.1471 3.52708 33.727C4.16679 34.7569 5.36709 36.3735 6.14001 37.2461C7.69152 38.9977 9.16924 39.7847 10.6889 39.6685C11.5116 39.6057 12.1537 39.4289 13.3883 38.9254C14.3161 38.5471 15.1362 38.2872 15.7324 38.1826C16.4277 38.0607 17.8722 38.0702 18.4959 38.2009C19.0922 38.3259 19.6762 38.5166 20.4765 38.8478C21.7747 39.3851 22.2564 39.5243 23.0858 39.6015C23.6856 39.6574 24.3742 39.5948 24.8905 39.4373C26.4758 38.9539 27.6699 37.865 29.6046 35.1381C30.5477 33.8089 31.3113 32.465 31.9109 31.0792C32.1695 30.4816 32.567 29.419 32.567 29.3255C32.567 29.3038 32.3753 29.1925 32.141 29.0783C31.1822 28.6107 30.0174 27.7378 29.3659 26.9985C28.3631 25.8605 27.6928 24.5564 27.412 23.1968C26.8738 20.5917 27.4851 18.0624 29.1349 16.0676C29.6587 15.4343 30.6184 14.5711 31.2439 14.1706L31.5485 13.9756L31.45 13.8377C31.2168 13.5113 30.766 13.0003 30.4061 12.6545C29.0683 11.3691 27.2287 10.5065 25.1745 10.2014C24.619 10.1188 23.0801 10.078 22.6643 10.1348ZM96.9578 21.6382V33.0974H98.4087H99.8595V21.6382V10.179H98.4087H96.9578V21.6382ZM43.4151 22.1652C41.3406 28.1163 39.6343 33.0108 39.6235 33.042C39.6078 33.0871 39.9086 33.0963 41.0915 33.0868L42.5793 33.075L43.7351 29.6664L44.8907 26.2578L48.8522 26.2463L52.8137 26.2349L54.0094 29.6657L55.2051 33.0966L56.7366 33.097C57.5789 33.0972 58.2681 33.0882 58.2681 33.0768C58.2681 33.0655 56.6179 28.3478 54.6009 22.5931C52.5839 16.8384 50.8722 11.9534 50.7969 11.7376L50.6601 11.3451H48.9235H47.187L43.4151 22.1652ZM49.1706 14.8883C49.5784 16.4176 49.8271 17.1827 51.0735 20.7412C51.7043 22.542 52.2119 24.0304 52.2016 24.0489C52.1759 24.095 45.5097 24.0918 45.5097 24.0457C45.5097 24.0254 45.9936 22.6177 46.585 20.9174C47.8994 17.1385 48.0211 16.7594 48.5488 14.7986C48.8299 13.7546 48.8195 13.7861 48.8653 13.838C48.8853 13.8606 49.0227 14.3333 49.1706 14.8883ZM67.9175 17.1786C66.8102 17.3239 65.6946 17.7564 64.8697 18.3602C64.4723 18.6511 63.7651 19.3854 63.4958 19.7869C63.2523 20.1499 63.15 20.2167 63.1508 20.0124C63.152 19.7351 63.0508 17.684 63.0314 17.5905L63.0104 17.4896H61.7148H60.4192L60.4508 18.1511C60.5393 20.0018 60.5688 23.1667 60.5699 30.9334L60.571 39.4661H61.9989H63.4267V35.2278C63.4267 32.8967 63.4439 30.9895 63.465 30.9895C63.4861 30.9895 63.5725 31.0954 63.6571 31.2249C63.854 31.5263 64.5702 32.22 64.9076 32.4362C65.6147 32.8893 66.4113 33.2007 67.2496 33.3519C67.9008 33.4693 69.0912 33.459 69.7625 33.3303C71.3805 33.0199 72.7677 32.2299 73.7946 31.0343C74.7517 29.92 75.4134 28.3125 75.6407 26.5493C75.7321 25.8408 75.7188 24.1395 75.617 23.4995C75.3236 21.6567 74.622 20.1673 73.5214 19.0507C72.5713 18.0869 71.4954 17.5008 70.1974 17.2403C69.7801 17.1565 68.3756 17.1185 67.9175 17.1786ZM86.2951 17.1587C84.989 17.3532 84.2047 17.6218 83.3473 18.1683C82.8694 18.4729 82.0376 19.2859 81.6916 19.7865C81.5431 20.0014 81.4072 20.1686 81.3895 20.158C81.3719 20.1474 81.3303 19.5427 81.297 18.8141L81.2364 17.4896H79.9251H78.6138L78.6447 18.0839C78.7375 19.8683 78.7629 22.5335 78.7636 30.5746L78.7644 39.4661H80.1922H81.6201V35.2278C81.6201 32.8967 81.6379 30.9895 81.6596 30.9895C81.6814 30.9895 81.7717 31.0954 81.8603 31.2249C82.5709 32.2634 83.9721 33.0988 85.4105 33.3416C87.5454 33.702 89.6678 33.1249 91.3012 31.7396C91.6782 31.4199 92.2599 30.7371 92.5709 30.2494C93.1847 29.2868 93.5915 28.1453 93.8098 26.7736C93.9274 26.0347 93.9284 24.1766 93.8116 23.459C93.3254 20.4709 91.6506 18.2726 89.2489 17.4699C88.5461 17.2351 88.1504 17.1723 87.2623 17.1546C86.8064 17.1455 86.3711 17.1474 86.2951 17.1587ZM109.394 17.1984C107.811 17.4095 106.528 18.0291 105.408 19.1231C104.124 20.3766 103.36 21.98 103.055 24.0601C102.947 24.7931 102.946 26.2492 103.052 26.953C103.582 30.4631 105.74 32.6983 109.163 33.2828C110.79 33.5606 113.374 33.3706 115.082 32.8475C115.49 32.7228 116.164 32.4696 116.164 32.4415C116.164 32.3993 115.69 30.4721 115.676 30.4563C115.668 30.4468 115.458 30.512 115.21 30.6012C114.554 30.8376 114.057 30.9667 113.355 31.0828C112.819 31.1716 112.565 31.1861 111.513 31.1885C110.166 31.1916 109.966 31.1683 109.165 30.915C107.862 30.503 106.904 29.6919 106.333 28.5161C105.983 27.7953 105.756 26.8509 105.755 26.112L105.755 25.7869H111.378H117L116.983 24.2507L116.966 22.7146L116.799 22.1091C116.441 20.8096 115.972 19.9007 115.222 19.0521C114.527 18.2653 113.539 17.6693 112.434 17.3703C111.593 17.1428 110.341 17.072 109.394 17.1984ZM111.397 19.2807C112.176 19.4804 112.909 19.9623 113.376 20.5818C113.896 21.2717 114.275 22.4682 114.276 23.421L114.276 23.7686H110.018H105.761L105.785 23.6004C105.833 23.2731 106.027 22.5273 106.142 22.2297C106.793 20.5458 107.941 19.5025 109.463 19.2126C109.929 19.1238 110.922 19.1587 111.397 19.2807ZM68.7087 19.4215C68.9068 19.448 69.263 19.532 69.5002 19.6082C71.2014 20.1548 72.3603 21.7158 72.7389 23.9704C72.8373 24.5566 72.8117 26.1423 72.6936 26.7736C72.3138 28.8038 71.3646 30.1845 69.9036 30.832C69.2524 31.1207 68.8854 31.1893 67.9866 31.1903C67.044 31.1915 66.6818 31.1189 65.9805 30.7888C64.7543 30.2114 63.8199 29.0547 63.5339 27.7603C63.4599 27.4251 63.4497 27.1511 63.4497 25.4953C63.4497 23.4491 63.4569 23.3762 63.7376 22.5576C64.1452 21.3694 64.9817 20.4049 66.0785 19.8585C66.943 19.4277 67.7513 19.2935 68.7087 19.4215ZM87.027 19.441C89.4684 19.8555 91.0109 22.0807 91.0152 25.1943C91.0172 26.576 90.7879 27.6645 90.2805 28.6826C89.6581 29.9317 88.6781 30.7425 87.3744 31.0873C86.8433 31.2278 85.5527 31.2383 85.0515 31.1064C83.3544 30.6596 82.0944 29.374 81.7273 27.7147C81.6532 27.3796 81.6432 27.1092 81.6443 25.4505L81.6455 23.5668L81.7892 23.0461C82.1259 21.8263 82.7173 20.9238 83.6087 20.2698C84.6292 19.521 85.811 19.2345 87.027 19.441Z" fill="#59769F"/>
</svg>
