<svg width="111" height="38" viewBox="0 0 111 38" fill="none" xmlns="http://www.w3.org/2000/svg">
<path opacity="0.3" fill-rule="evenodd" clip-rule="evenodd" d="M12.6619 0.743388C10.3086 1.01243 7.93782 1.92157 6.01559 3.29209C4.9603 4.04447 3.81505 5.11877 3.07245 6.05286C1.61191 7.89008 0.615669 10.0619 0.205424 12.3031C-0.0822557 13.8746 -0.0667124 15.8675 0.245324 17.4209C0.814866 20.2561 2.18449 22.755 4.29646 24.8125C6.56195 27.0194 9.47817 28.4071 12.6619 28.793C13.4786 28.8921 15.1159 28.8926 16.0182 28.7941C19.232 28.4434 21.7247 27.2742 23.8904 25.1015C24.8527 24.1361 25.4652 23.2855 26.0337 22.1249C26.6914 20.7821 27.0966 19.3543 27.3005 17.6604C27.405 16.7919 27.4048 14.9407 27.3001 14.1807C27.2592 13.8838 27.2154 13.6241 27.2027 13.6036C27.19 13.583 24.2697 13.5662 20.7131 13.5662H14.2466V15.5044V17.4426H18.8507H23.4549L23.4272 17.606C23.1703 19.1249 22.7327 20.3631 22.1415 21.2448C21.6939 21.9123 21.0453 22.5757 20.2633 23.1662C19.0146 24.109 17.5988 24.6759 15.8313 24.941C15.2197 25.0326 13.3082 25.0202 12.7053 24.9207C10.0713 24.4856 7.79707 23.12 6.23563 21.036C5.39369 19.9122 4.83778 18.7561 4.49739 17.4209C4.23759 16.4016 4.19547 16.0263 4.1969 14.7422C4.19834 13.454 4.25591 12.9866 4.54233 11.9381C5.52637 8.33617 8.41754 5.56382 12.038 4.75055C13.5239 4.41674 15.2282 4.43124 16.7143 4.79031C18.1996 5.14921 19.64 5.90194 20.8366 6.94444L21.1963 7.25782L22.5469 5.89471L23.8976 4.53155L23.6634 4.32039C21.2574 2.15093 18.7696 1.02781 15.6856 0.718779C15.0664 0.656756 13.2935 0.671173 12.6619 0.743388ZM87.9109 1.70409C87.8947 1.72034 87.8815 7.71812 87.8815 15.0326V28.3315H89.8353H91.7891L91.7782 15.0144L91.7673 1.6973L89.8538 1.68597C88.8013 1.67975 87.927 1.68789 87.9109 1.70409ZM37.4312 10.7375C34.8225 10.8851 32.3936 12.1496 30.8264 14.176C29.0036 16.5327 28.4679 19.8118 29.4254 22.7516C30.291 25.4095 32.378 27.5034 35.0485 28.3933C39.0173 29.7158 43.3296 28.297 45.5958 24.923C47.1404 22.6232 47.5423 19.5699 46.658 16.854C45.6235 13.677 42.9875 11.4248 39.6237 10.844C39.4088 10.8069 39.0571 10.7667 38.8422 10.7546C38.6273 10.7427 38.344 10.727 38.2127 10.7198C38.0813 10.7127 37.7296 10.7206 37.4312 10.7375ZM57.0773 10.7392C54.925 10.8497 52.8572 11.7332 51.3287 13.1954C49.8471 14.6126 48.9515 16.3965 48.6498 18.5315C48.5633 19.1434 48.5651 20.4563 48.6532 21.0838C49.0646 24.013 50.7442 26.4499 53.2851 27.8041C55.9099 29.2031 59.1432 29.2442 61.8172 27.9126C63.9254 26.8627 65.5109 25.0248 66.2561 22.7665C67.5123 18.96 66.257 14.7986 63.1593 12.5004C61.4353 11.2214 59.3647 10.6218 57.0773 10.7392ZM76.3109 10.7372C73.73 10.9014 71.1826 12.4485 69.6806 14.764C67.3396 18.373 67.767 23.0698 70.717 26.1545C73.7553 29.3315 78.5658 29.8036 81.2647 27.1897C81.4819 26.9793 81.6822 26.8071 81.7097 26.8071C81.7866 26.8071 81.7756 28.5988 81.6949 29.2113C81.3952 31.4869 80.1637 32.9301 78.1745 33.3367C76.9699 33.5829 75.8301 33.4608 74.86 32.9818C73.927 32.5211 73.0417 31.614 72.5321 30.5964C72.4421 30.4168 72.364 30.2639 72.3585 30.2568C72.345 30.2392 68.9829 31.6424 68.9378 31.6845C68.8819 31.7365 69.345 32.6219 69.7269 33.1932C70.9209 34.9795 72.6991 36.2486 74.7262 36.7613C75.5004 36.9572 75.989 37.0122 76.9622 37.0132C78.2126 37.0144 79.0531 36.8867 80.1076 36.5351C83.3176 35.4646 85.1798 32.7636 85.4917 28.7257C85.521 28.3474 85.537 25.151 85.537 19.6988V11.2578H83.6483H81.7597V11.9982C81.7597 12.588 81.7479 12.7386 81.7015 12.7386C81.6695 12.7386 81.4933 12.5924 81.3099 12.4138C80.3906 11.518 78.8976 10.8536 77.5863 10.7566C76.9549 10.7098 76.7817 10.7072 76.3109 10.7372ZM101.339 10.7338C97.6399 11.0355 94.6879 13.5706 93.768 17.2357C93.5447 18.1253 93.4682 18.7694 93.4665 19.7729C93.4639 21.3598 93.7581 22.6549 94.4263 23.9978C94.857 24.8633 95.2988 25.4881 95.9774 26.1912C97.3521 27.6158 99.0633 28.4839 101.102 28.7911C101.691 28.88 103.02 28.8931 103.598 28.8158C105.718 28.5327 107.514 27.618 109.006 26.0623C109.451 25.5977 109.999 24.8903 109.949 24.8446C109.931 24.8279 109.239 24.3623 108.412 23.81L106.908 22.8058L106.633 23.1622C105.626 24.4667 104.465 25.1316 102.919 25.2888C101.873 25.3953 100.818 25.18 99.9598 24.6846C99.2567 24.2788 98.5475 23.5214 98.1495 22.7515L98.0456 22.5506L104.06 20.0511C107.369 18.6763 110.093 17.5406 110.114 17.5274C110.167 17.4949 109.591 16.0622 109.278 15.4471C108.126 13.1819 106.234 11.5562 104.076 10.9769C103.281 10.7634 102.177 10.6654 101.339 10.7338ZM103.254 14.3638C104.123 14.59 104.868 15.0886 105.264 15.7105C105.559 16.1734 105.662 16.0836 104.089 16.7369C103.33 17.0524 101.517 17.8076 100.06 18.4151L97.4115 19.5196L97.3981 19.2542C97.3817 18.9278 97.4531 18.361 97.5677 17.9073C98.0221 16.1091 99.5437 14.6749 101.411 14.2843C101.863 14.1897 102.729 14.2271 103.254 14.3638ZM38.56 14.3249C39.0769 14.3606 39.6985 14.5398 40.2315 14.8067C41.7058 15.5451 42.6662 16.8388 43.0391 18.5887C43.1158 18.9485 43.1336 19.1766 43.1336 19.7946C43.1336 20.6466 43.058 21.1217 42.8096 21.8282C42.194 23.5797 40.7266 24.8755 38.9643 25.2238C38.4493 25.3256 37.5763 25.3237 37.0838 25.2198C35.3143 24.8467 33.882 23.5734 33.2684 21.8282C33.0201 21.1218 32.9443 20.6467 32.9443 19.7946C32.9443 18.7216 33.0909 18.0536 33.5232 17.1567C34.2953 15.5544 35.8766 14.4525 37.6048 14.3122C37.8317 14.2938 38.0661 14.2841 38.1258 14.2906C38.1855 14.2971 38.3809 14.3125 38.56 14.3249ZM58.5654 14.3762C60.524 14.7268 62.0997 16.2719 62.591 18.3236C63.0715 20.3303 62.5439 22.418 61.2085 23.7939C59.7151 25.3324 57.4568 25.7432 55.5433 24.8242C54.0496 24.1069 53.0517 22.8005 52.6636 21.0542C52.5302 20.4543 52.5185 19.1976 52.6409 18.6241C52.8919 17.4477 53.3732 16.5215 54.1257 15.7665C55.2959 14.5927 56.9247 14.0826 58.5654 14.3762ZM78.091 14.3775C78.5604 14.4675 79.1234 14.6854 79.5523 14.9429C79.9848 15.2026 80.6 15.7763 80.9453 16.242C81.9306 17.5707 82.2944 19.5883 81.8676 21.3567C81.2018 24.1154 78.8349 25.7379 76.2458 25.2105C75.3401 25.026 74.5416 24.6026 73.8434 23.9366C72.9739 23.1073 72.4205 22.0122 72.2233 20.7311C72.1264 20.1012 72.1656 19.058 72.3094 18.4444C72.5619 17.3671 73.0389 16.4844 73.7652 15.7503C74.9188 14.5843 76.5202 14.0761 78.091 14.3775Z" fill="#59769F"/>
</svg>
